# xmcd
#
# Track frame offsets: 
#        150
#        16616
#        33310
#        50533
#        66791
#        88438
#        101250
#        115834
#        129665
#        146903
#        160956
#        184235
#        196859
#        212442
#        229336
#        247826
#        261783
#        278255
#        295315
#        311593
#
# Disc length: 4343 seconds
#
# Revision: 0
# Processed by: cddbd v1.5.2PL0 Copyright (c) Steve Scherf et al.
# Submitted via: ExactAudioCopy v0.99pb4
#
DISCID=1a10f514
DTITLE=Various Artist - Alle 40 Goed Fout - CD 1
DYEAR=2015
DGENRE=Pop
TTITLE0=Christoff - Sweet Caroline
TTITLE1=Village People - Y.M.C.A.
TTITLE2=Abba - Dancing Queen
TTITLE3=Get Ready! - Diep
TTITLE4=John Travolta and Olivia Newton-John - The Grease Megamix
TTITLE5=2 Fabiola Feat. Loredana - She's After My Piano
TTITLE6=Aqua - Barbie Girl
TTITLE7=Sandra Kim - J'Aime La Vie
TTITLE8=Zangeres Zonder Naam - Mexico (Live)
TTITLE9=De Kreuners - Ik Wil Je
TTITLE10=Paul De Leeuw - Vlieg Met Me Mee
TTITLE11=Bart Peeters and De Radio's - I'm Into Folk
TTITLE12=X-Session - On And On
TTITLE13=Benny Neyman - Vrijgezel
TTITLE14=Sam Gooris - Laat Het Gras Maar Groeien
TTITLE15=Gloria Gaynor - I Will Survive
TTITLE16=Psy - Gangnam Style
TTITLE17=K3 - Mamasé!
TTITLE18=The Darkness - I Believe In A Thing Called Love
TTITLE19=The Clement Peerens Explosition - Boormachien
EXTD=
EXTT0=
EXTT1=
EXTT2=
EXTT3=
EXTT4=
EXTT5=
EXTT6=
EXTT7=
EXTT8=
EXTT9=
EXTT10=
EXTT11=
EXTT12=
EXTT13=
EXTT14=
EXTT15=
EXTT16=
EXTT17=
EXTT18=
EXTT19=
PLAYORDER=
